<?xml version="1.0" encoding="UTF-8"?>
<svg width="180px" height="52px" viewBox="0 0 180 52" version="1.1" xmlns="http://www.w3.org/2000/svg" xmlns:xlink="http://www.w3.org/1999/xlink">
    <!-- Generator: Sketch 51.3 (57544) - http://www.bohemiancoding.com/sketch -->
    <title>Logo</title>
    <desc>Created with Sketch.</desc>
    <defs>
        <polygon id="path-1" points="0 0.484188679 95.6261319 0.484188679 95.6261319 51.5781132 0 51.5781132"></polygon>
        <polygon id="path-3" points="0.0633140975 0.0339946524 28.3257952 0.0339946524 28.3257952 17.7272727 0.0633140975 17.7272727"></polygon>
        <polygon id="path-5" points="0.44883698 0.0339946524 28.7121735 0.0339946524 28.7121735 17.7272727 0.44883698 17.7272727"></polygon>
        <polygon id="path-7" points="0.499700336 0.0415527273 3.09137143 0.0415527273 3.09137143 2.35366182 0.499700336 2.35366182"></polygon>
    </defs>
    <g id="Page-1" stroke="none" stroke-width="1" fill="none" fill-rule="evenodd">
        <g id="CMS-Template-1:--Home-Page" transform="translate(-32.000000, -58.000000)">
            <g id="Desktop-Nav" transform="translate(0.000000, 2.000000)">
                <g id="Logo" transform="translate(32.000000, 56.000000)">
                    <path d="M56.3327226,27.4449198 L60.548115,24.8824752 L62.704712,26.4387166 C63.5804571,25.7366234 64.205493,24.7959358 64.5679045,23.6582124 C65.6020186,20.3956303 63.3079038,18.8628571 59.1203128,18.8628571 C54.9649913,18.8628571 51.6650604,20.3956303 50.6304499,23.6582124 C49.588889,26.9398625 51.9247059,28.4516119 56.079531,28.4516119 C56.6032901,28.4516119 57.0669783,28.4286325 57.6379006,28.3860963 L56.3327226,27.4449198 Z M61.8671938,31.4477311 C60.7318031,31.6252101 59.5854904,31.7352177 58.4451351,31.8217571 C57.2720139,31.9082964 56.1465523,31.9532773 54.9669772,31.9532773 C46.7248449,31.9532773 40.331508,30.136929 42.3883176,23.6582124 C44.442645,17.1799847 51.9872592,15.3636364 60.2313773,15.3636364 C68.4735095,15.3636364 74.8668464,17.1799847 72.812519,23.6582124 C71.9020221,26.5252559 69.9097515,28.4731245 67.314289,29.7413904 L70.0214537,31.7352177 L65.7802456,34.2727273 L61.8671938,31.4477311 Z" id="Fill-1" fill="#5E27D2"></path>
                    <path d="M77.8930055,16.5454545 L85.7576851,16.5454545 L82.792569,26.0547347 C81.9770617,28.6629198 83.504257,29.494486 87.106833,29.494486 C90.7079043,29.494486 92.7521894,28.6629198 93.5656904,26.0547347 L96.5328127,16.5454545 L104.4,16.5454545 L101.159537,26.932499 C99.7777892,31.3599861 94.3455882,33.0909091 85.9843821,33.0909091 C77.6216713,33.0909091 73.2707947,31.3599861 74.6530444,26.932499 L77.8930055,16.5454545 Z" id="Fill-3" fill="#5E27D2"></path>
                    <polygon id="Fill-5" fill="#5E27D2" points="107.134248 16.5454545 115.2 16.5454545 110.064209 31.9090909 102 31.9090909"></polygon>
                    <path d="M144.140226,26.142838 C142.146272,29.7451352 138.418273,33.0909091 127.49615,33.0909091 C117.736267,33.0909091 113.89793,29.9797155 115.584896,24.2270115 C117.223312,18.6378345 122.675547,15.3636364 132.694849,15.3636364 C139.738913,15.3636364 145.213705,16.531836 145.199974,22.3090952 L136.636661,22.3090952 C136.533677,21.1163404 135.991789,19.1028156 131.629216,19.1028156 C126.815479,19.1028156 124.539546,21.4663823 123.727939,24.2270115 C122.919274,26.9855509 123.650456,29.3491176 128.625044,29.3491176 C132.083324,29.3491176 134.522559,28.0837421 135.608298,26.142838 L144.140226,26.142838 Z" id="Fill-7" fill="#5E27D2"></path>
                    <polygon id="Fill-9" fill="#5E27D2" points="150.088266 16.5454545 157.765982 16.5454545 155.848756 22.5716069 167.376587 16.5454545 177.6 16.5454545 165.258681 22.5922757 173.521305 31.9090909 163.26363 31.9090909 158.086581 25.7767106 154.253107 27.5835469 152.879184 31.9090909 145.2 31.9090909"></polygon>
                    <path d="M174,13 C174,13 173.47831,12.8708395 172.516244,12.6371956 C164.364158,10.6682862 124.588816,1.31990436 103.2,1.18181818 C127.469625,2.39256621 159.701274,12.4712822 161.374603,13 L174,13 Z M143.556794,13 L157.6248,12.9821486 C157.6248,12.9821486 134.419129,3.72722426 103.2,1.18181818 C139.730574,6.66746231 143.556794,13 143.556794,13 Z" id="Fill-11" fill="#5E27D2"></path>
                    <polygon id="Fill-13" fill="#5E27D2" points="59.1589842 2.36363636 64.1480612 2.36363636 68.4480066 8.28397391 68.4843801 8.28397391 70.2126161 2.36363636 74.4 2.36363636 71.6410158 11.8181818 66.8519934 11.8181818 62.3667395 5.84680687 62.3308575 5.84680687 60.5873839 11.8181818 56.4 11.8181818"></polygon>
                    <path d="M91.4180453,8.66914466 C90.1245089,10.3645894 87.7226016,11.8181818 81.7936305,11.8181818 C75.9255071,11.8181818 73.6169694,10.1589158 74.6314461,7.09214809 C75.6165481,4.11111905 78.8949758,2.36363636 84.9188901,2.36363636 C88.8850009,2.36363636 92.021276,2.91077785 92.4,5.50771753 L87.1508438,5.50771753 C86.9011587,4.94620366 86.2160984,4.36139664 84.278941,4.36139664 C81.3823845,4.36139664 80.0143622,5.61972294 79.5275813,7.09214809 C79.0413249,8.56259084 79.4787983,9.82240394 82.4718717,9.82240394 C84.1520003,9.82240394 85.4303249,9.38330307 86.2050829,8.66914466 L91.4180453,8.66914466 Z" id="Fill-15" fill="#5E27D2"></path>
                    <g id="Group-19">
                        <mask id="mask-2" fill="white">
                            <use xlink:href="#path-1"></use>
                        </mask>
                        <g id="Clip-18"></g>
                        <path d="M87.3530722,41.1251321 C86.9176082,42.5085283 85.7834227,43.1026038 83.6313402,43.1026038 L76.7183505,43.1026038 L77.964866,39.1501132 L84.8783505,39.1501132 C87.0309278,39.1501132 87.7885361,39.7422264 87.3530722,41.1251321 M88.4456907,35.8981509 L71.2285361,35.8981509 L66.8338144,49.8424906 C51.5554639,44.0184906 8.43661856,24.2491698 53.5640412,0.484188679 C53.5640412,0.484188679 -4.76041237,5.52279245 0.312742267,51.4461509 C10.3838351,51.4461509 20.4227629,51.4569434 29.6560825,51.4741132 C-5.68973196,13.5739623 53.0558351,0.632830189 53.0558351,0.632830189 C1.06738144,16.4246415 30.233567,45.1158868 37.6037938,51.4883396 C50.0456907,51.5118868 74.0486598,51.5781132 74.0486598,51.5781132 L75.6955052,46.3526038 L85.5117526,46.3526038 C91.7710515,46.3526038 94.5575258,43.717283 95.3750103,41.1251321 C96.3097732,38.1591698 94.771299,35.8981509 88.4456907,35.8981509" id="Fill-17" fill="#5E27D2" mask="url(#mask-2)"></path>
                    </g>
                    <path d="M108.77695,39.3277796 L108.713273,39.3277796 L103.545977,45.1376307 L110.155764,45.1376307 L108.77695,39.3277796 Z M105.249189,35.4545455 L114.864793,35.4545455 L120,50.8181818 L111.574189,50.8181818 L110.969014,48.3225462 L100.65899,48.3225462 L98.4263128,50.8181818 L90,50.8181818 L105.249189,35.4545455 Z" id="Fill-20" fill="#5E27D2"></path>
                    <g id="Group-24" transform="translate(120.000000, 34.272727)">
                        <mask id="mask-4" fill="white">
                            <use xlink:href="#path-3"></use>
                        </mask>
                        <g id="Clip-23"></g>
                        <path d="M19.5743837,5.42517112 C19.6842142,4.28228342 18.6625464,3.48820588 15.1562685,3.48820588 C12.5828176,3.48820588 11.0115092,4.02523797 10.6893397,5.12276471 C10.5258142,5.68430214 10.9788041,6.00912834 12.0941939,6.14886096 C13.9544786,6.38400802 19.6578549,7.01280481 21.8266414,7.29435561 C25.9499227,7.83086631 28.1533668,9.08950267 27.2918075,12.0291016 C25.6409329,17.6794091 15.5277397,17.727377 12.3758481,17.727377 C4.59057356,17.727377 -0.743284068,16.7242219 0.163671864,12.0791551 L9.23567186,12.0791551 C9.05994305,13.3393556 9.79263458,14.1329118 13.7797261,14.1329118 C15.7112786,14.1329118 17.8961736,13.806 18.3130414,12.3810401 C18.5727295,11.4931123 17.6955498,11.1912273 15.1157532,10.8888209 L7.70683119,10.0472968 C3.12811932,9.53320588 1.79794983,7.80583957 2.52185492,5.33236364 C3.16375322,3.13887433 5.93733966,0.0339946524 16.0066007,0.0339946524 C24.3366346,0.0339946524 28.9324312,1.48189572 28.2612447,5.42517112 L19.5743837,5.42517112 Z" id="Fill-22" fill="#5E27D2" mask="url(#mask-4)"></path>
                    </g>
                    <g id="Group-27" transform="translate(146.400000, 34.272727)">
                        <mask id="mask-6" fill="white">
                            <use xlink:href="#path-5"></use>
                        </mask>
                        <g id="Clip-26"></g>
                        <path d="M19.9624027,5.42517112 C20.0717451,4.28228342 19.0500773,3.48820588 15.5428231,3.48820588 C12.9683959,3.48820588 11.3980637,4.02523797 11.074918,5.12276471 C10.9128569,5.68430214 11.3643824,6.00912834 12.4807485,6.14886096 C14.3420095,6.38400802 20.0453858,7.01280481 22.2151485,7.29435561 C26.3374536,7.83086631 28.5408976,9.08950267 27.6798264,12.0291016 C26.0289519,17.6794091 15.9147824,17.727377 12.7624027,17.727377 C4.97859254,17.727377 -0.358193898,16.7242219 0.549250169,12.0791551 L9.62125017,12.0791551 C9.44552136,13.3393556 10.178701,14.1329118 14.1677451,14.1329118 C16.0978332,14.1329118 18.2841925,13.806 18.7000841,12.3810401 C18.9602603,11.4931123 18.0835688,11.1912273 15.5023078,10.8888209 L8.09240949,10.0472968 C3.51565017,9.53320588 2.18596881,7.80583957 2.90792136,5.33236364 C3.55128407,3.13887433 6.3234061,0.0339946524 16.3926671,0.0339946524 C24.7222129,0.0339946524 29.3180095,1.48189572 28.6477993,5.42517112 L19.9624027,5.42517112 Z" id="Fill-25" fill="#5E27D2" mask="url(#mask-6)"></path>
                    </g>
                    <g id="Group-30" transform="translate(176.400000, 36.636364)">
                        <mask id="mask-8" fill="white">
                            <use xlink:href="#path-7"></use>
                        </mask>
                        <g id="Clip-29"></g>
                        <path d="M1.86963429,1.08486182 C1.99974857,1.08486182 2.08152,1.05980727 2.11392,0.922243636 C2.14374857,0.794134545 1.99614857,0.784207273 1.88609143,0.784207273 L1.68346286,0.784207273 L1.61403429,1.08486182 L1.86963429,1.08486182 Z M1.44432,1.81853455 L1.15477714,1.81853455 L1.44277714,0.573843636 L1.94780571,0.573843636 C2.29752,0.573843636 2.48266286,0.66508 2.41632,0.949661818 C2.36386286,1.17893455 2.19826286,1.26166182 2.01569143,1.27395273 L2.23632,1.81853455 L1.89277714,1.81853455 L1.70094857,1.29522545 L1.56466286,1.29522545 L1.44432,1.81853455 Z M2.00232,0.310061818 C1.50294857,0.310061818 1.01849143,0.66508 0.895062857,1.19737091 C0.772148571,1.72966182 1.09254857,2.08751636 1.59243429,2.08468 L1.59140571,2.08751636 C2.07689143,2.08751636 2.57266286,1.72966182 2.69506286,1.19737091 C2.81900571,0.66508 2.48780571,0.310061818 2.00232,0.310061818 Z M1.53020571,2.35366182 C0.86112,2.35366182 0.363805714,1.92820727 0.533005714,1.19737091 C0.701691429,0.466534545 1.39546286,0.0415527273 2.06454857,0.0415527273 C2.73003429,0.0415527273 3.22734857,0.466534545 3.05814857,1.19737091 C2.88894857,1.92820727 2.19517714,2.35366182 1.53020571,2.35366182 Z" id="Fill-28" fill="#5E27D2" mask="url(#mask-8)"></path>
                    </g>
                </g>
            </g>
        </g>
    </g>
</svg>